# xmcd CD database file
#
# Track frame offsets:
#	150
#	18697
#	39332
#	61680
#	82889
#	101678
#	124101
#	141897
#	161213
#	179026
#	197905
#	212316
#	234434
#	238714
#	258764
#	276381
#	300105
#	302067
#
# Disc length: 4073 seconds
#
# Revision: 0
# Processed by: cddbd v1.5.2PL0 Copyright (c) Steve Scherf et al.
# Submitted via: CDex 1.51
#
DISCID=f10fe712
DTITLE=Brad Paisley - 5th Gear
DYEAR=2007
DGENRE=Country
TTITLE0=All I Wanted Was a Car
TTITLE1=Ticks
TTITLE2=Online
TTITLE3=Letter to Me
TTITLE4=I'm Still a Guy
TTITLE5=Some Mistakes
TTITLE6=It Did
TTITLE7=Mr. Policeman
TTITLE8=If Love Was a Plane
TTITLE9=Oh Love
TTITLE10=Better Than This
TTITLE11=With You, Without You
TTITLE12=Previously
TTITLE13=Bigger Fish To Fry
TTITLE14=When We All Get to Heaven
TTITLE15=Throttleneck
TTITLE16=Outtake #1
TTITLE17=Outtake #2
EXTD=YEAR: 2007
EXTT0=
EXTT1=
EXTT2=
EXTT3=
EXTT4=
EXTT5=
EXTT6=
EXTT7=
EXTT8=
EXTT9=
EXTT10=
EXTT11=
EXTT12=
EXTT13=
EXTT14=
EXTT15=
EXTT16=
EXTT17=
PLAYORDER=
